<svg xmlns="http://www.w3.org/2000/svg" width="715" height="115" viewBox="0 0 715 115" font-family="-apple-system,'Segoe UI',Roboto,Helvetica,Arial,sans-serif">
    <style>
      .flower {
        opacity: 0;
        animation-name: appear;
        animation-duration: 0.3s;
        animation-timing-function: ease-out;
        animation-iteration-count: 1;
        animation-fill-mode: forwards;
      }
      @keyframes appear {
        from { opacity: 0; }
        to   { opacity: 1; }
      }
    </style>
    <rect width="715" height="115" fill="#0d1117"/>
    <text x="26" y="12" font-size="9" fill="#7d8590">Ago</text><text x="65" y="12" font-size="9" fill="#7d8590">Set</text><text x="117" y="12" font-size="9" fill="#7d8590">Out</text><text x="169" y="12" font-size="9" fill="#7d8590">Nov</text><text x="234" y="12" font-size="9" fill="#7d8590">Dez</text><text x="286" y="12" font-size="9" fill="#7d8590">Jan</text><text x="338" y="12" font-size="9" fill="#7d8590">Fev</text><text x="390" y="12" font-size="9" fill="#7d8590">Mar</text><text x="455" y="12" font-size="9" fill="#7d8590">Abr</text><text x="507" y="12" font-size="9" fill="#7d8590">Mai</text><text x="572" y="12" font-size="9" fill="#7d8590">Jun</text><text x="624" y="12" font-size="9" fill="#7d8590">Jul</text><text x="676" y="12" font-size="9" fill="#7d8590">Ago</text><text x="0" y="39" font-size="9" fill="#7d8590">Seg</text><text x="0" y="65" font-size="9" fill="#7d8590">Qua</text><text x="0" y="91" font-size="9" fill="#7d8590">Sex</text><rect x="26" y="18" width="10" height="10" rx="2" ry="2" fill="#161b22"/><rect x="26" y="31" width="10" height="10" rx="2" ry="2" fill="#161b22"/><rect x="26" y="44" width="10" height="10" rx="2" ry="2" fill="#161b22"/><rect x="26" y="57" width="10" height="10" rx="2" ry="2" fill="#161b22"/><rect x="26" y="70" width="10" height="10" rx="2" ry="2" fill="#0e4429"/><text class="flower" style="animation-delay:0.0s" x="31.0" y="75.0" font-size="10" text-anchor="middle" dominant-baseline="central">🌱</text><rect x="26" y="83" width="10" height="10" rx="2" ry="2" fill="#161b22"/><rect x="26" y="96" width="10" height="10" rx="2" ry="2" fill="#161b22"/><rect x="39" y="18" width="10" height="10" rx="2" ry="2" fill="#161b22"/><rect x="39" y="31" width="10" height="10" rx="2" ry="2" fill="#161b22"/><rect x="39" y="44" width="10" height="10" rx="2" ry="2" fill="#161b22"/><rect x="39" y="57" width="10" height="10" rx="2" ry="2" fill="#161b22"/><rect x="39" y="70" width="10" height="10" rx="2" ry="2" fill="#161b22"/><rect x="39" y="83" width="10" height="10" rx="2" ry="2" fill="#0e4429"/><text class="flower" style="animation-delay:0.05s" x="44.0" y="88.0" font-size="10" text-anchor="middle" dominant-baseline="central">🌱</text><rect x="39" y="96" width="10" height="10" rx="2" ry="2" fill="#006d32"/><text class="flower" style="animation-delay:0.05s" x="44.0" y="101.0" font-size="10" text-anchor="middle" dominant-baseline="central">🌿</text><rect x="52" y="18" width="10" height="10" rx="2" ry="2" fill="#161b22"/><rect x="52" y="31" width="10" height="10" rx="2" ry="2" fill="#0e4429"/><text class="flower" style="animation-delay:0.1s" x="57.0" y="36.0" font-size="10" text-anchor="middle" dominant-baseline="central">🌱</text><rect x="52" y="44" width="10" height="10" rx="2" ry="2" fill="#161b22"/><rect x="52" y="57" width="10" height="10" rx="2" ry="2" fill="#0e4429"/><text class="flower" style="animation-delay:0.1s" x="57.0" y="62.0" font-size="10" text-anchor="middle" dominant-baseline="central">🌱</text><rect x="52" y="70" width="10" height="10" rx="2" ry="2" fill="#0e4429"/><text class="flower" style="animation-delay:0.1s" x="57.0" y="75.0" font-size="10" text-anchor="middle" dominant-baseline="central">🌱</text><rect x="52" y="83" width="10" height="10" rx="2" ry="2" fill="#0e4429"/><text class="flower" style="animation-delay:0.1s" x="57.0" y="88.0" font-size="10" text-anchor="middle" dominant-baseline="central">🌱</text><rect x="52" y="96" width="10" height="10" rx="2" ry="2" fill="#161b22"/><rect x="65" y="18" width="10" height="10" rx="2" ry="2" fill="#161b22"/><rect x="65" y="31" width="10" height="10" rx="2" ry="2" fill="#0e4429"/><text class="flower" style="animation-delay:0.15s" x="70.0" y="36.0" font-size="10" text-anchor="middle" dominant-baseline="central">🌱</text><rect x="65" y="44" width="10" height="10" rx="2" ry="2" fill="#161b22"/><rect x="65" y="57" width="10" height="10" rx="2" ry="2" fill="#006d32"/><text class="flower" style="animation-delay:0.15s" x="70.0" y="62.0" font-size="10" text-anchor="middle" dominant-baseline="central">🌿</text><rect x="65" y="70" width="10" height="10" rx="2" ry="2" fill="#0e4429"/><text class="flower" style="animation-delay:0.15s" x="70.0" y="75.0" font-size="10" text-anchor="middle" dominant-baseline="central">🌱</text><rect x="65" y="83" width="10" height="10" rx="2" ry="2" fill="#161b22"/><rect x="65" y="96" width="10" height="10" rx="2" ry="2" fill="#0e4429"/><text class="flower" style="animation-delay:0.15s" x="70.0" y="101.0" font-size="10" text-anchor="middle" dominant-baseline="central">🌱</text><rect x="78" y="18" width="10" height="10" rx="2" ry="2" fill="#161b22"/><rect x="78" y="31" width="10" height="10" rx="2" ry="2" fill="#161b22"/><rect x="78" y="44" width="10" height="10" rx="2" ry="2" fill="#161b22"/><rect x="78" y="57" width="10" height="10" rx="2" ry="2" fill="#161b22"/><rect x="78" y="70" width="10" height="10" rx="2" ry="2" fill="#161b22"/><rect x="78" y="83" width="10" height="10" rx="2" ry="2" fill="#161b22"/><rect x="78" y="96" width="10" height="10" rx="2" ry="2" fill="#161b22"/><rect x="91" y="18" width="10" height="10" rx="2" ry="2" fill="#161b22"/><rect x="91" y="31" width="10" height="10" rx="2" ry="2" fill="#161b22"/><rect x="91" y="44" width="10" height="10" rx="2" ry="2" fill="#161b22"/><rect x="91" y="57" width="10" height="10" rx="2" ry="2" fill="#161b22"/><rect x="91" y="70" width="10" height="10" rx="2" ry="2" fill="#161b22"/><rect x="91" y="83" width="10" height="10" rx="2" ry="2" fill="#161b22"/><rect x="91" y="96" width="10" height="10" rx="2" ry="2" fill="#161b22"/><rect x="104" y="18" width="10" height="10" rx="2" ry="2" fill="#161b22"/><rect x="104" y="31" width="10" height="10" rx="2" ry="2" fill="#161b22"/><rect x="104" y="44" width="10" height="10" rx="2" ry="2" fill="#161b22"/><rect x="104" y="57" width="10" height="10" rx="2" ry="2" fill="#161b22"/><rect x="104" y="70" width="10" height="10" rx="2" ry="2" fill="#161b22"/><rect x="104" y="83" width="10" height="10" rx="2" ry="2" fill="#161b22"/><rect x="104" y="96" width="10" height="10" rx="2" ry="2" fill="#161b22"/><rect x="117" y="18" width="10" height="10" rx="2" ry="2" fill="#0e4429"/><text class="flower" style="animation-delay:0.35s" x="122.0" y="23.0" font-size="10" text-anchor="middle" dominant-baseline="central">🌱</text><rect x="117" y="31" width="10" height="10" rx="2" ry="2" fill="#006d32"/><text class="flower" style="animation-delay:0.35s" x="122.0" y="36.0" font-size="10" text-anchor="middle" dominant-baseline="central">🌿</text><rect x="117" y="44" width="10" height="10" rx="2" ry="2" fill="#0e4429"/><text class="flower" style="animation-delay:0.35s" x="122.0" y="49.0" font-size="10" text-anchor="middle" dominant-baseline="central">🌱</text><rect x="117" y="57" width="10" height="10" rx="2" ry="2" fill="#161b22"/><rect x="117" y="70" width="10" height="10" rx="2" ry="2" fill="#0e4429"/><text class="flower" style="animation-delay:0.35s" x="122.0" y="75.0" font-size="10" text-anchor="middle" dominant-baseline="central">🌱</text><rect x="117" y="83" width="10" height="10" rx="2" ry="2" fill="#0e4429"/><text class="flower" style="animation-delay:0.35s" x="122.0" y="88.0" font-size="10" text-anchor="middle" dominant-baseline="central">🌱</text><rect x="117" y="96" width="10" height="10" rx="2" ry="2" fill="#161b22"/><rect x="130" y="18" width="10" height="10" rx="2" ry="2" fill="#161b22"/><rect x="130" y="31" width="10" height="10" rx="2" ry="2" fill="#0e4429"/><text class="flower" style="animation-delay:0.4s" x="135.0" y="36.0" font-size="10" text-anchor="middle" dominant-baseline="central">🌱</text><rect x="130" y="44" width="10" height="10" rx="2" ry="2" fill="#161b22"/><rect x="130" y="57" width="10" height="10" rx="2" ry="2" fill="#006d32"/><text class="flower" style="animation-delay:0.4s" x="135.0" y="62.0" font-size="10" text-anchor="middle" dominant-baseline="central">🌿</text><rect x="130" y="70" width="10" height="10" rx="2" ry="2" fill="#161b22"/><rect x="130" y="83" width="10" height="10" rx="2" ry="2" fill="#161b22"/><rect x="130" y="96" width="10" height="10" rx="2" ry="2" fill="#161b22"/><rect x="143" y="18" width="10" height="10" rx="2" ry="2" fill="#161b22"/><rect x="143" y="31" width="10" height="10" rx="2" ry="2" fill="#161b22"/><rect x="143" y="44" width="10" height="10" rx="2" ry="2" fill="#161b22"/><rect x="143" y="57" width="10" height="10" rx="2" ry="2" fill="#161b22"/><rect x="143" y="70" width="10" height="10" rx="2" ry="2" fill="#161b22"/><rect x="143" y="83" width="10" height="10" rx="2" ry="2" fill="#161b22"/><rect x="143" y="96" width="10" height="10" rx="2" ry="2" fill="#161b22"/><rect x="156" y="18" width="10" height="10" rx="2" ry="2" fill="#161b22"/><rect x="156" y="31" width="10" height="10" rx="2" ry="2" fill="#161b22"/><rect x="156" y="44" width="10" height="10" rx="2" ry="2" fill="#161b22"/><rect x="156" y="57" width="10" height="10" rx="2" ry="2" fill="#161b22"/><rect x="156" y="70" width="10" height="10" rx="2" ry="2" fill="#161b22"/><rect x="156" y="83" width="10" height="10" rx="2" ry="2" fill="#161b22"/><rect x="156" y="96" width="10" height="10" rx="2" ry="2" fill="#161b22"/><rect x="169" y="18" width="10" height="10" rx="2" ry="2" fill="#161b22"/><rect x="169" y="31" width="10" height="10" rx="2" ry="2" fill="#161b22"/><rect x="169" y="44" width="10" height="10" rx="2" ry="2" fill="#161b22"/><rect x="169" y="57" width="10" height="10" rx="2" ry="2" fill="#161b22"/><rect x="169" y="70" width="10" height="10" rx="2" ry="2" fill="#161b22"/><rect x="169" y="83" width="10" height="10" rx="2" ry="2" fill="#161b22"/><rect x="169" y="96" width="10" height="10" rx="2" ry="2" fill="#161b22"/><rect x="182" y="18" width="10" height="10" rx="2" ry="2" fill="#161b22"/><rect x="182" y="31" width="10" height="10" rx="2" ry="2" fill="#0e4429"/><text class="flower" style="animation-delay:0.6s" x="187.0" y="36.0" font-size="10" text-anchor="middle" dominant-baseline="central">🌱</text><rect x="182" y="44" width="10" height="10" rx="2" ry="2" fill="#0e4429"/><text class="flower" style="animation-delay:0.6s" x="187.0" y="49.0" font-size="10" text-anchor="middle" dominant-baseline="central">🌱</text><rect x="182" y="57" width="10" height="10" rx="2" ry="2" fill="#26a641"/><text class="flower" style="animation-delay:0.6s" x="187.0" y="62.0" font-size="10" text-anchor="middle" dominant-baseline="central">🌷</text><rect x="182" y="70" width="10" height="10" rx="2" ry="2" fill="#0e4429"/><text class="flower" style="animation-delay:0.6s" x="187.0" y="75.0" font-size="10" text-anchor="middle" dominant-baseline="central">🌱</text><rect x="182" y="83" width="10" height="10" rx="2" ry="2" fill="#006d32"/><text class="flower" style="animation-delay:0.6s" x="187.0" y="88.0" font-size="10" text-anchor="middle" dominant-baseline="central">🌿</text><rect x="182" y="96" width="10" height="10" rx="2" ry="2" fill="#0e4429"/><text class="flower" style="animation-delay:0.6s" x="187.0" y="101.0" font-size="10" text-anchor="middle" dominant-baseline="central">🌱</text><rect x="195" y="18" width="10" height="10" rx="2" ry="2" fill="#006d32"/><text class="flower" style="animation-delay:0.65s" x="200.0" y="23.0" font-size="10" text-anchor="middle" dominant-baseline="central">🌿</text><rect x="195" y="31" width="10" height="10" rx="2" ry="2" fill="#006d32"/><text class="flower" style="animation-delay:0.65s" x="200.0" y="36.0" font-size="10" text-anchor="middle" dominant-baseline="central">🌿</text><rect x="195" y="44" width="10" height="10" rx="2" ry="2" fill="#161b22"/><rect x="195" y="57" width="10" height="10" rx="2" ry="2" fill="#0e4429"/><text class="flower" style="animation-delay:0.65s" x="200.0" y="62.0" font-size="10" text-anchor="middle" dominant-baseline="central">🌱</text><rect x="195" y="70" width="10" height="10" rx="2" ry="2" fill="#161b22"/><rect x="195" y="83" width="10" height="10" rx="2" ry="2" fill="#161b22"/><rect x="195" y="96" width="10" height="10" rx="2" ry="2" fill="#161b22"/><rect x="208" y="18" width="10" height="10" rx="2" ry="2" fill="#161b22"/><rect x="208" y="31" width="10" height="10" rx="2" ry="2" fill="#161b22"/><rect x="208" y="44" width="10" height="10" rx="2" ry="2" fill="#161b22"/><rect x="208" y="57" width="10" height="10" rx="2" ry="2" fill="#161b22"/><rect x="208" y="70" width="10" height="10" rx="2" ry="2" fill="#0e4429"/><text class="flower" style="animation-delay:0.7s" x="213.0" y="75.0" font-size="10" text-anchor="middle" dominant-baseline="central">🌱</text><rect x="208" y="83" width="10" height="10" rx="2" ry="2" fill="#161b22"/><rect x="208" y="96" width="10" height="10" rx="2" ry="2" fill="#161b22"/><rect x="221" y="18" width="10" height="10" rx="2" ry="2" fill="#161b22"/><rect x="221" y="31" width="10" height="10" rx="2" ry="2" fill="#161b22"/><rect x="221" y="44" width="10" height="10" rx="2" ry="2" fill="#161b22"/><rect x="221" y="57" width="10" height="10" rx="2" ry="2" fill="#161b22"/><rect x="221" y="70" width="10" height="10" rx="2" ry="2" fill="#161b22"/><rect x="221" y="83" width="10" height="10" rx="2" ry="2" fill="#0e4429"/><text class="flower" style="animation-delay:0.75s" x="226.0" y="88.0" font-size="10" text-anchor="middle" dominant-baseline="central">🌱</text><rect x="221" y="96" width="10" height="10" rx="2" ry="2" fill="#161b22"/><rect x="234" y="18" width="10" height="10" rx="2" ry="2" fill="#161b22"/><rect x="234" y="31" width="10" height="10" rx="2" ry="2" fill="#161b22"/><rect x="234" y="44" width="10" height="10" rx="2" ry="2" fill="#161b22"/><rect x="234" y="57" width="10" height="10" rx="2" ry="2" fill="#161b22"/><rect x="234" y="70" width="10" height="10" rx="2" ry="2" fill="#161b22"/><rect x="234" y="83" width="10" height="10" rx="2" ry="2" fill="#161b22"/><rect x="234" y="96" width="10" height="10" rx="2" ry="2" fill="#161b22"/><rect x="247" y="18" width="10" height="10" rx="2" ry="2" fill="#161b22"/><rect x="247" y="31" width="10" height="10" rx="2" ry="2" fill="#161b22"/><rect x="247" y="44" width="10" height="10" rx="2" ry="2" fill="#161b22"/><rect x="247" y="57" width="10" height="10" rx="2" ry="2" fill="#161b22"/><rect x="247" y="70" width="10" height="10" rx="2" ry="2" fill="#161b22"/><rect x="247" y="83" width="10" height="10" rx="2" ry="2" fill="#161b22"/><rect x="247" y="96" width="10" height="10" rx="2" ry="2" fill="#161b22"/><rect x="260" y="18" width="10" height="10" rx="2" ry="2" fill="#161b22"/><rect x="260" y="31" width="10" height="10" rx="2" ry="2" fill="#161b22"/><rect x="260" y="44" width="10" height="10" rx="2" ry="2" fill="#161b22"/><rect x="260" y="57" width="10" height="10" rx="2" ry="2" fill="#161b22"/><rect x="260" y="70" width="10" height="10" rx="2" ry="2" fill="#161b22"/><rect x="260" y="83" width="10" height="10" rx="2" ry="2" fill="#161b22"/><rect x="260" y="96" width="10" height="10" rx="2" ry="2" fill="#161b22"/><rect x="273" y="18" width="10" height="10" rx="2" ry="2" fill="#161b22"/><rect x="273" y="31" width="10" height="10" rx="2" ry="2" fill="#161b22"/><rect x="273" y="44" width="10" height="10" rx="2" ry="2" fill="#161b22"/><rect x="273" y="57" width="10" height="10" rx="2" ry="2" fill="#161b22"/><rect x="273" y="70" width="10" height="10" rx="2" ry="2" fill="#161b22"/><rect x="273" y="83" width="10" height="10" rx="2" ry="2" fill="#161b22"/><rect x="273" y="96" width="10" height="10" rx="2" ry="2" fill="#161b22"/><rect x="286" y="18" width="10" height="10" rx="2" ry="2" fill="#161b22"/><rect x="286" y="31" width="10" height="10" rx="2" ry="2" fill="#161b22"/><rect x="286" y="44" width="10" height="10" rx="2" ry="2" fill="#161b22"/><rect x="286" y="57" width="10" height="10" rx="2" ry="2" fill="#161b22"/><rect x="286" y="70" width="10" height="10" rx="2" ry="2" fill="#161b22"/><rect x="286" y="83" width="10" height="10" rx="2" ry="2" fill="#161b22"/><rect x="286" y="96" width="10" height="10" rx="2" ry="2" fill="#161b22"/><rect x="299" y="18" width="10" height="10" rx="2" ry="2" fill="#161b22"/><rect x="299" y="31" width="10" height="10" rx="2" ry="2" fill="#161b22"/><rect x="299" y="44" width="10" height="10" rx="2" ry="2" fill="#161b22"/><rect x="299" y="57" width="10" height="10" rx="2" ry="2" fill="#161b22"/><rect x="299" y="70" width="10" height="10" rx="2" ry="2" fill="#161b22"/><rect x="299" y="83" width="10" height="10" rx="2" ry="2" fill="#161b22"/><rect x="299" y="96" width="10" height="10" rx="2" ry="2" fill="#161b22"/><rect x="312" y="18" width="10" height="10" rx="2" ry="2" fill="#161b22"/><rect x="312" y="31" width="10" height="10" rx="2" ry="2" fill="#161b22"/><rect x="312" y="44" width="10" height="10" rx="2" ry="2" fill="#161b22"/><rect x="312" y="57" width="10" height="10" rx="2" ry="2" fill="#161b22"/><rect x="312" y="70" width="10" height="10" rx="2" ry="2" fill="#161b22"/><rect x="312" y="83" width="10" height="10" rx="2" ry="2" fill="#161b22"/><rect x="312" y="96" width="10" height="10" rx="2" ry="2" fill="#161b22"/><rect x="325" y="18" width="10" height="10" rx="2" ry="2" fill="#161b22"/><rect x="325" y="31" width="10" height="10" rx="2" ry="2" fill="#161b22"/><rect x="325" y="44" width="10" height="10" rx="2" ry="2" fill="#161b22"/><rect x="325" y="57" width="10" height="10" rx="2" ry="2" fill="#161b22"/><rect x="325" y="70" width="10" height="10" rx="2" ry="2" fill="#161b22"/><rect x="325" y="83" width="10" height="10" rx="2" ry="2" fill="#161b22"/><rect x="325" y="96" width="10" height="10" rx="2" ry="2" fill="#161b22"/><rect x="338" y="18" width="10" height="10" rx="2" ry="2" fill="#161b22"/><rect x="338" y="31" width="10" height="10" rx="2" ry="2" fill="#161b22"/><rect x="338" y="44" width="10" height="10" rx="2" ry="2" fill="#161b22"/><rect x="338" y="57" width="10" height="10" rx="2" ry="2" fill="#161b22"/><rect x="338" y="70" width="10" height="10" rx="2" ry="2" fill="#161b22"/><rect x="338" y="83" width="10" height="10" rx="2" ry="2" fill="#161b22"/><rect x="338" y="96" width="10" height="10" rx="2" ry="2" fill="#161b22"/><rect x="351" y="18" width="10" height="10" rx="2" ry="2" fill="#161b22"/><rect x="351" y="31" width="10" height="10" rx="2" ry="2" fill="#161b22"/><rect x="351" y="44" width="10" height="10" rx="2" ry="2" fill="#161b22"/><rect x="351" y="57" width="10" height="10" rx="2" ry="2" fill="#161b22"/><rect x="351" y="70" width="10" height="10" rx="2" ry="2" fill="#161b22"/><rect x="351" y="83" width="10" height="10" rx="2" ry="2" fill="#161b22"/><rect x="351" y="96" width="10" height="10" rx="2" ry="2" fill="#161b22"/><rect x="364" y="18" width="10" height="10" rx="2" ry="2" fill="#161b22"/><rect x="364" y="31" width="10" height="10" rx="2" ry="2" fill="#161b22"/><rect x="364" y="44" width="10" height="10" rx="2" ry="2" fill="#161b22"/><rect x="364" y="57" width="10" height="10" rx="2" ry="2" fill="#161b22"/><rect x="364" y="70" width="10" height="10" rx="2" ry="2" fill="#161b22"/><rect x="364" y="83" width="10" height="10" rx="2" ry="2" fill="#161b22"/><rect x="364" y="96" width="10" height="10" rx="2" ry="2" fill="#161b22"/><rect x="377" y="18" width="10" height="10" rx="2" ry="2" fill="#161b22"/><rect x="377" y="31" width="10" height="10" rx="2" ry="2" fill="#161b22"/><rect x="377" y="44" width="10" height="10" rx="2" ry="2" fill="#161b22"/><rect x="377" y="57" width="10" height="10" rx="2" ry="2" fill="#161b22"/><rect x="377" y="70" width="10" height="10" rx="2" ry="2" fill="#161b22"/><rect x="377" y="83" width="10" height="10" rx="2" ry="2" fill="#161b22"/><rect x="377" y="96" width="10" height="10" rx="2" ry="2" fill="#161b22"/><rect x="390" y="18" width="10" height="10" rx="2" ry="2" fill="#161b22"/><rect x="390" y="31" width="10" height="10" rx="2" ry="2" fill="#161b22"/><rect x="390" y="44" width="10" height="10" rx="2" ry="2" fill="#161b22"/><rect x="390" y="57" width="10" height="10" rx="2" ry="2" fill="#161b22"/><rect x="390" y="70" width="10" height="10" rx="2" ry="2" fill="#161b22"/><rect x="390" y="83" width="10" height="10" rx="2" ry="2" fill="#161b22"/><rect x="390" y="96" width="10" height="10" rx="2" ry="2" fill="#161b22"/><rect x="403" y="18" width="10" height="10" rx="2" ry="2" fill="#161b22"/><rect x="403" y="31" width="10" height="10" rx="2" ry="2" fill="#161b22"/><rect x="403" y="44" width="10" height="10" rx="2" ry="2" fill="#161b22"/><rect x="403" y="57" width="10" height="10" rx="2" ry="2" fill="#161b22"/><rect x="403" y="70" width="10" height="10" rx="2" ry="2" fill="#161b22"/><rect x="403" y="83" width="10" height="10" rx="2" ry="2" fill="#161b22"/><rect x="403" y="96" width="10" height="10" rx="2" ry="2" fill="#161b22"/><rect x="416" y="18" width="10" height="10" rx="2" ry="2" fill="#161b22"/><rect x="416" y="31" width="10" height="10" rx="2" ry="2" fill="#161b22"/><rect x="416" y="44" width="10" height="10" rx="2" ry="2" fill="#161b22"/><rect x="416" y="57" width="10" height="10" rx="2" ry="2" fill="#161b22"/><rect x="416" y="70" width="10" height="10" rx="2" ry="2" fill="#161b22"/><rect x="416" y="83" width="10" height="10" rx="2" ry="2" fill="#161b22"/><rect x="416" y="96" width="10" height="10" rx="2" ry="2" fill="#161b22"/><rect x="429" y="18" width="10" height="10" rx="2" ry="2" fill="#161b22"/><rect x="429" y="31" width="10" height="10" rx="2" ry="2" fill="#161b22"/><rect x="429" y="44" width="10" height="10" rx="2" ry="2" fill="#161b22"/><rect x="429" y="57" width="10" height="10" rx="2" ry="2" fill="#161b22"/><rect x="429" y="70" width="10" height="10" rx="2" ry="2" fill="#161b22"/><rect x="429" y="83" width="10" height="10" rx="2" ry="2" fill="#161b22"/><rect x="429" y="96" width="10" height="10" rx="2" ry="2" fill="#161b22"/><rect x="442" y="18" width="10" height="10" rx="2" ry="2" fill="#161b22"/><rect x="442" y="31" width="10" height="10" rx="2" ry="2" fill="#161b22"/><rect x="442" y="44" width="10" height="10" rx="2" ry="2" fill="#161b22"/><rect x="442" y="57" width="10" height="10" rx="2" ry="2" fill="#161b22"/><rect x="442" y="70" width="10" height="10" rx="2" ry="2" fill="#161b22"/><rect x="442" y="83" width="10" height="10" rx="2" ry="2" fill="#161b22"/><rect x="442" y="96" width="10" height="10" rx="2" ry="2" fill="#161b22"/><rect x="455" y="18" width="10" height="10" rx="2" ry="2" fill="#161b22"/><rect x="455" y="31" width="10" height="10" rx="2" ry="2" fill="#161b22"/><rect x="455" y="44" width="10" height="10" rx="2" ry="2" fill="#0e4429"/><text class="flower" style="animation-delay:1.65s" x="460.0" y="49.0" font-size="10" text-anchor="middle" dominant-baseline="central">🌱</text><rect x="455" y="57" width="10" height="10" rx="2" ry="2" fill="#161b22"/><rect x="455" y="70" width="10" height="10" rx="2" ry="2" fill="#161b22"/><rect x="455" y="83" width="10" height="10" rx="2" ry="2" fill="#161b22"/><rect x="455" y="96" width="10" height="10" rx="2" ry="2" fill="#161b22"/><rect x="468" y="18" width="10" height="10" rx="2" ry="2" fill="#161b22"/><rect x="468" y="31" width="10" height="10" rx="2" ry="2" fill="#0e4429"/><text class="flower" style="animation-delay:1.7s" x="473.0" y="36.0" font-size="10" text-anchor="middle" dominant-baseline="central">🌱</text><rect x="468" y="44" width="10" height="10" rx="2" ry="2" fill="#26a641"/><text class="flower" style="animation-delay:1.7s" x="473.0" y="49.0" font-size="10" text-anchor="middle" dominant-baseline="central">🌷</text><rect x="468" y="57" width="10" height="10" rx="2" ry="2" fill="#161b22"/><rect x="468" y="70" width="10" height="10" rx="2" ry="2" fill="#161b22"/><rect x="468" y="83" width="10" height="10" rx="2" ry="2" fill="#161b22"/><rect x="468" y="96" width="10" height="10" rx="2" ry="2" fill="#161b22"/><rect x="481" y="18" width="10" height="10" rx="2" ry="2" fill="#161b22"/><rect x="481" y="31" width="10" height="10" rx="2" ry="2" fill="#0e4429"/><text class="flower" style="animation-delay:1.75s" x="486.0" y="36.0" font-size="10" text-anchor="middle" dominant-baseline="central">🌱</text><rect x="481" y="44" width="10" height="10" rx="2" ry="2" fill="#26a641"/><text class="flower" style="animation-delay:1.75s" x="486.0" y="49.0" font-size="10" text-anchor="middle" dominant-baseline="central">🌷</text><rect x="481" y="57" width="10" height="10" rx="2" ry="2" fill="#161b22"/><rect x="481" y="70" width="10" height="10" rx="2" ry="2" fill="#161b22"/><rect x="481" y="83" width="10" height="10" rx="2" ry="2" fill="#161b22"/><rect x="481" y="96" width="10" height="10" rx="2" ry="2" fill="#161b22"/><rect x="494" y="18" width="10" height="10" rx="2" ry="2" fill="#161b22"/><rect x="494" y="31" width="10" height="10" rx="2" ry="2" fill="#161b22"/><rect x="494" y="44" width="10" height="10" rx="2" ry="2" fill="#161b22"/><rect x="494" y="57" width="10" height="10" rx="2" ry="2" fill="#161b22"/><rect x="494" y="70" width="10" height="10" rx="2" ry="2" fill="#161b22"/><rect x="494" y="83" width="10" height="10" rx="2" ry="2" fill="#161b22"/><rect x="494" y="96" width="10" height="10" rx="2" ry="2" fill="#161b22"/><rect x="507" y="18" width="10" height="10" rx="2" ry="2" fill="#161b22"/><rect x="507" y="31" width="10" height="10" rx="2" ry="2" fill="#161b22"/><rect x="507" y="44" width="10" height="10" rx="2" ry="2" fill="#161b22"/><rect x="507" y="57" width="10" height="10" rx="2" ry="2" fill="#161b22"/><rect x="507" y="70" width="10" height="10" rx="2" ry="2" fill="#0e4429"/><text class="flower" style="animation-delay:1.85s" x="512.0" y="75.0" font-size="10" text-anchor="middle" dominant-baseline="central">🌱</text><rect x="507" y="83" width="10" height="10" rx="2" ry="2" fill="#161b22"/><rect x="507" y="96" width="10" height="10" rx="2" ry="2" fill="#161b22"/><rect x="520" y="18" width="10" height="10" rx="2" ry="2" fill="#161b22"/><rect x="520" y="31" width="10" height="10" rx="2" ry="2" fill="#161b22"/><rect x="520" y="44" width="10" height="10" rx="2" ry="2" fill="#26a641"/><text class="flower" style="animation-delay:1.9s" x="525.0" y="49.0" font-size="10" text-anchor="middle" dominant-baseline="central">🌷</text><rect x="520" y="57" width="10" height="10" rx="2" ry="2" fill="#39d353"/><text class="flower" style="animation-delay:1.9s" x="525.0" y="62.0" font-size="10" text-anchor="middle" dominant-baseline="central">🌸</text><rect x="520" y="70" width="10" height="10" rx="2" ry="2" fill="#26a641"/><text class="flower" style="animation-delay:1.9s" x="525.0" y="75.0" font-size="10" text-anchor="middle" dominant-baseline="central">🌷</text><rect x="520" y="83" width="10" height="10" rx="2" ry="2" fill="#006d32"/><text class="flower" style="animation-delay:1.9s" x="525.0" y="88.0" font-size="10" text-anchor="middle" dominant-baseline="central">🌿</text><rect x="520" y="96" width="10" height="10" rx="2" ry="2" fill="#161b22"/><rect x="533" y="18" width="10" height="10" rx="2" ry="2" fill="#161b22"/><rect x="533" y="31" width="10" height="10" rx="2" ry="2" fill="#161b22"/><rect x="533" y="44" width="10" height="10" rx="2" ry="2" fill="#161b22"/><rect x="533" y="57" width="10" height="10" rx="2" ry="2" fill="#161b22"/><rect x="533" y="70" width="10" height="10" rx="2" ry="2" fill="#161b22"/><rect x="533" y="83" width="10" height="10" rx="2" ry="2" fill="#161b22"/><rect x="533" y="96" width="10" height="10" rx="2" ry="2" fill="#0e4429"/><text class="flower" style="animation-delay:1.95s" x="538.0" y="101.0" font-size="10" text-anchor="middle" dominant-baseline="central">🌱</text><rect x="546" y="18" width="10" height="10" rx="2" ry="2" fill="#161b22"/><rect x="546" y="31" width="10" height="10" rx="2" ry="2" fill="#161b22"/><rect x="546" y="44" width="10" height="10" rx="2" ry="2" fill="#161b22"/><rect x="546" y="57" width="10" height="10" rx="2" ry="2" fill="#161b22"/><rect x="546" y="70" width="10" height="10" rx="2" ry="2" fill="#0e4429"/><text class="flower" style="animation-delay:2.0s" x="551.0" y="75.0" font-size="10" text-anchor="middle" dominant-baseline="central">🌱</text><rect x="546" y="83" width="10" height="10" rx="2" ry="2" fill="#0e4429"/><text class="flower" style="animation-delay:2.0s" x="551.0" y="88.0" font-size="10" text-anchor="middle" dominant-baseline="central">🌱</text><rect x="546" y="96" width="10" height="10" rx="2" ry="2" fill="#161b22"/><rect x="559" y="18" width="10" height="10" rx="2" ry="2" fill="#161b22"/><rect x="559" y="31" width="10" height="10" rx="2" ry="2" fill="#161b22"/><rect x="559" y="44" width="10" height="10" rx="2" ry="2" fill="#161b22"/><rect x="559" y="57" width="10" height="10" rx="2" ry="2" fill="#161b22"/><rect x="559" y="70" width="10" height="10" rx="2" ry="2" fill="#161b22"/><rect x="559" y="83" width="10" height="10" rx="2" ry="2" fill="#161b22"/><rect x="559" y="96" width="10" height="10" rx="2" ry="2" fill="#161b22"/><rect x="572" y="18" width="10" height="10" rx="2" ry="2" fill="#0e4429"/><text class="flower" style="animation-delay:2.1s" x="577.0" y="23.0" font-size="10" text-anchor="middle" dominant-baseline="central">🌱</text><rect x="572" y="31" width="10" height="10" rx="2" ry="2" fill="#161b22"/><rect x="572" y="44" width="10" height="10" rx="2" ry="2" fill="#161b22"/><rect x="572" y="57" width="10" height="10" rx="2" ry="2" fill="#161b22"/><rect x="572" y="70" width="10" height="10" rx="2" ry="2" fill="#161b22"/><rect x="572" y="83" width="10" height="10" rx="2" ry="2" fill="#006d32"/><text class="flower" style="animation-delay:2.1s" x="577.0" y="88.0" font-size="10" text-anchor="middle" dominant-baseline="central">🌿</text><rect x="572" y="96" width="10" height="10" rx="2" ry="2" fill="#161b22"/><rect x="585" y="18" width="10" height="10" rx="2" ry="2" fill="#0e4429"/><text class="flower" style="animation-delay:2.15s" x="590.0" y="23.0" font-size="10" text-anchor="middle" dominant-baseline="central">🌱</text><rect x="585" y="31" width="10" height="10" rx="2" ry="2" fill="#161b22"/><rect x="585" y="44" width="10" height="10" rx="2" ry="2" fill="#161b22"/><rect x="585" y="57" width="10" height="10" rx="2" ry="2" fill="#161b22"/><rect x="585" y="70" width="10" height="10" rx="2" ry="2" fill="#161b22"/><rect x="585" y="83" width="10" height="10" rx="2" ry="2" fill="#161b22"/><rect x="585" y="96" width="10" height="10" rx="2" ry="2" fill="#161b22"/><rect x="598" y="18" width="10" height="10" rx="2" ry="2" fill="#161b22"/><rect x="598" y="31" width="10" height="10" rx="2" ry="2" fill="#161b22"/><rect x="598" y="44" width="10" height="10" rx="2" ry="2" fill="#161b22"/><rect x="598" y="57" width="10" height="10" rx="2" ry="2" fill="#161b22"/><rect x="598" y="70" width="10" height="10" rx="2" ry="2" fill="#161b22"/><rect x="598" y="83" width="10" height="10" rx="2" ry="2" fill="#161b22"/><rect x="598" y="96" width="10" height="10" rx="2" ry="2" fill="#161b22"/><rect x="611" y="18" width="10" height="10" rx="2" ry="2" fill="#161b22"/><rect x="611" y="31" width="10" height="10" rx="2" ry="2" fill="#161b22"/><rect x="611" y="44" width="10" height="10" rx="2" ry="2" fill="#161b22"/><rect x="611" y="57" width="10" height="10" rx="2" ry="2" fill="#161b22"/><rect x="611" y="70" width="10" height="10" rx="2" ry="2" fill="#161b22"/><rect x="611" y="83" width="10" height="10" rx="2" ry="2" fill="#161b22"/><rect x="611" y="96" width="10" height="10" rx="2" ry="2" fill="#161b22"/><rect x="624" y="18" width="10" height="10" rx="2" ry="2" fill="#161b22"/><rect x="624" y="31" width="10" height="10" rx="2" ry="2" fill="#161b22"/><rect x="624" y="44" width="10" height="10" rx="2" ry="2" fill="#161b22"/><rect x="624" y="57" width="10" height="10" rx="2" ry="2" fill="#161b22"/><rect x="624" y="70" width="10" height="10" rx="2" ry="2" fill="#161b22"/><rect x="624" y="83" width="10" height="10" rx="2" ry="2" fill="#161b22"/><rect x="624" y="96" width="10" height="10" rx="2" ry="2" fill="#161b22"/><rect x="637" y="18" width="10" height="10" rx="2" ry="2" fill="#161b22"/><rect x="637" y="31" width="10" height="10" rx="2" ry="2" fill="#161b22"/><rect x="637" y="44" width="10" height="10" rx="2" ry="2" fill="#161b22"/><rect x="637" y="57" width="10" height="10" rx="2" ry="2" fill="#161b22"/><rect x="637" y="70" width="10" height="10" rx="2" ry="2" fill="#161b22"/><rect x="637" y="83" width="10" height="10" rx="2" ry="2" fill="#161b22"/><rect x="637" y="96" width="10" height="10" rx="2" ry="2" fill="#161b22"/><rect x="650" y="18" width="10" height="10" rx="2" ry="2" fill="#161b22"/><rect x="650" y="31" width="10" height="10" rx="2" ry="2" fill="#161b22"/><rect x="650" y="44" width="10" height="10" rx="2" ry="2" fill="#161b22"/><rect x="650" y="57" width="10" height="10" rx="2" ry="2" fill="#161b22"/><rect x="650" y="70" width="10" height="10" rx="2" ry="2" fill="#161b22"/><rect x="650" y="83" width="10" height="10" rx="2" ry="2" fill="#161b22"/><rect x="650" y="96" width="10" height="10" rx="2" ry="2" fill="#161b22"/><rect x="663" y="18" width="10" height="10" rx="2" ry="2" fill="#161b22"/><rect x="663" y="31" width="10" height="10" rx="2" ry="2" fill="#161b22"/><rect x="663" y="44" width="10" height="10" rx="2" ry="2" fill="#161b22"/><rect x="663" y="57" width="10" height="10" rx="2" ry="2" fill="#161b22"/><rect x="663" y="70" width="10" height="10" rx="2" ry="2" fill="#161b22"/><rect x="663" y="83" width="10" height="10" rx="2" ry="2" fill="#161b22"/><rect x="663" y="96" width="10" height="10" rx="2" ry="2" fill="#161b22"/><rect x="676" y="18" width="10" height="10" rx="2" ry="2" fill="#161b22"/><rect x="676" y="31" width="10" height="10" rx="2" ry="2" fill="#161b22"/><rect x="676" y="44" width="10" height="10" rx="2" ry="2" fill="#161b22"/><rect x="676" y="57" width="10" height="10" rx="2" ry="2" fill="#161b22"/><rect x="676" y="70" width="10" height="10" rx="2" ry="2" fill="#161b22"/><rect x="676" y="83" width="10" height="10" rx="2" ry="2" fill="#161b22"/><rect x="676" y="96" width="10" height="10" rx="2" ry="2" fill="#161b22"/><rect x="689" y="18" width="10" height="10" rx="2" ry="2" fill="#161b22"/><rect x="689" y="31" width="10" height="10" rx="2" ry="2" fill="#161b22"/><rect x="689" y="44" width="10" height="10" rx="2" ry="2" fill="#161b22"/><rect x="689" y="57" width="10" height="10" rx="2" ry="2" fill="#161b22"/><rect x="689" y="70" width="10" height="10" rx="2" ry="2" fill="#161b22"/><rect x="689" y="83" width="10" height="10" rx="2" ry="2" fill="#161b22"/><rect x="689" y="96" width="10" height="10" rx="2" ry="2" fill="#0e4429"/><text class="flower" style="animation-delay:2.55s" x="694.0" y="101.0" font-size="10" text-anchor="middle" dominant-baseline="central">🌱</text><rect x="702" y="18" width="10" height="10" rx="2" ry="2" fill="#161b22"/><rect x="702" y="31" width="10" height="10" rx="2" ry="2" fill="#0e4429"/><text class="flower" style="animation-delay:2.6s" x="707.0" y="36.0" font-size="10" text-anchor="middle" dominant-baseline="central">🌱</text></svg>